<svg width="113" height="54" viewBox="0 0 113 54" fill="none" xmlns="http://www.w3.org/2000/svg">
<path d="M3.71439 36.6103H4.81808V41.3381H3.71439V40.8434C3.54038 41.0484 3.32282 41.2122 3.07748 41.3229C2.83214 41.4336 2.56518 41.4884 2.29595 41.4835C0.832537 41.4835 0 40.2713 0 38.9681C0 37.4297 1.05736 36.4866 2.30821 36.4866C2.57968 36.4815 2.84852 36.5404 3.09286 36.6585C3.33721 36.7765 3.55016 36.9505 3.71439 37.1661V36.6103ZM1.12549 38.9912C1.12549 39.8066 1.64327 40.4955 2.44311 40.4955C3.14075 40.4955 3.78252 39.99 3.78252 39.0007C3.78252 37.9679 3.14075 37.4732 2.44311 37.4732C1.64327 37.4732 1.12549 38.1527 1.12549 38.9898" fill="#1D1D1B"/>
<path d="M9.88445 38.059C9.71245 37.8763 9.50505 37.7303 9.27482 37.6298C9.04459 37.5294 8.79632 37.4766 8.54504 37.4746C8.35135 37.4688 8.15852 37.5026 7.9785 37.5742C7.79849 37.6457 7.63514 37.7534 7.49857 37.8905C7.36187 38.0358 7.25537 38.2067 7.18521 38.3933C7.11505 38.5799 7.08263 38.7785 7.0898 38.9777C7.08208 39.1854 7.11593 39.3927 7.18939 39.5873C7.26285 39.7819 7.37444 39.9599 7.51765 40.111C7.78965 40.3632 8.14922 40.5001 8.52051 40.4929C8.77742 40.4921 9.03133 40.4377 9.26597 40.3333C9.50061 40.229 9.7108 40.0769 9.88309 39.8868V41.1099C9.44959 41.3709 8.94884 41.4994 8.44284 41.4795C7.65391 41.4795 7.09116 41.2553 6.64151 40.7837C6.41542 40.5479 6.23872 40.2694 6.12174 39.9647C6.00476 39.66 5.94985 39.335 5.96022 39.0089C5.95167 38.6714 6.01105 38.3357 6.13485 38.0215C6.25866 37.7073 6.44438 37.4211 6.68103 37.1797C7.05165 36.8088 7.64846 36.4826 8.58864 36.4826C9.04261 36.4772 9.48969 36.5936 9.88309 36.8196L9.88445 38.059Z" fill="#1D1D1B"/>
<path d="M14.6137 38.059C14.4414 37.8763 14.2338 37.7303 14.0033 37.6299C13.7729 37.5295 13.5244 37.4766 13.273 37.4746C13.0793 37.4689 12.8865 37.5029 12.7065 37.5744C12.5265 37.6459 12.3632 37.7535 12.2265 37.8905C12.0898 38.0358 11.9833 38.2067 11.9131 38.3933C11.843 38.5799 11.8106 38.7785 11.8177 38.9776C11.8103 39.1855 11.8444 39.3928 11.9181 39.5874C11.9917 39.7819 12.1035 39.96 12.2469 40.111C12.5183 40.3633 12.8775 40.5003 13.2484 40.4929C13.5053 40.4918 13.7591 40.4373 13.9937 40.333C14.2283 40.2286 14.4386 40.0767 14.611 39.8868V41.1098C14.1769 41.3705 13.6758 41.499 13.1694 41.4795C12.3818 41.4795 11.8177 41.2552 11.3681 40.7837C11.142 40.5478 10.9653 40.2694 10.8483 39.9647C10.7313 39.6599 10.6764 39.335 10.6868 39.0089C10.6782 38.6714 10.7376 38.3357 10.8614 38.0215C10.9852 37.7073 11.1709 37.4211 11.4076 37.1797C11.7796 36.8087 12.3764 36.4826 13.3152 36.4826C13.7691 36.4775 14.2161 36.5939 14.6097 36.8196L14.6137 38.059Z" fill="#1D1D1B"/>
<path d="M20.4879 38.9803C20.4879 40.4289 19.3843 41.4835 17.9549 41.4835C16.5256 41.4835 15.4219 40.4289 15.4219 38.9803C15.4219 37.5316 16.5242 36.4866 17.9549 36.4866C19.3856 36.4866 20.4879 37.5194 20.4879 38.9803ZM19.3625 38.9911C19.3625 37.9135 18.6526 37.4745 17.9549 37.4745C17.2573 37.4745 16.5474 37.9135 16.5474 38.9911C16.5474 39.9003 17.0924 40.4955 17.9549 40.4955C18.8174 40.4955 19.3625 39.9003 19.3625 38.9911Z" fill="#1D1D1B"/>
<path d="M21.6387 36.6104H22.741V40.3271H24.6105V36.6104H25.7141V40.3271H26.5017V42.6849H25.4893V41.3381H21.6387V36.6104Z" fill="#1D1D1B"/>
<path d="M28.3947 36.6103V39.2942L31.6363 36.1836V41.3381H30.534V38.5862L27.291 41.6969V36.6103H28.3947Z" fill="#1D1D1B"/>
<path d="M36.5009 36.6103H37.6046V41.3381H36.5009V40.8434C36.3267 41.0482 36.1091 41.2118 35.8638 41.3225C35.6185 41.4332 35.3517 41.4882 35.0825 41.4835C33.6177 41.4835 32.7852 40.2713 32.7852 38.9681C32.7852 37.4297 33.8439 36.4866 35.0934 36.4866C35.365 36.4816 35.634 36.5405 35.8786 36.6586C36.1231 36.7767 36.3363 36.9505 36.5009 37.1661V36.6103ZM33.912 38.9912C33.912 39.8066 34.4298 40.4955 35.2296 40.4955C35.9273 40.4955 36.569 39.99 36.569 39.0007C36.569 37.9679 35.9273 37.4732 35.2296 37.4732C34.4298 37.4732 33.912 38.1527 33.912 38.9898" fill="#1D1D1B"/>
<path d="M39 36.6104H40.1037V40.3271H41.9731V36.6104H43.0755V40.3271H43.8644V42.6849H42.8506V41.3381H39V36.6104Z" fill="#1D1D1B"/>
<path d="M45.756 36.6103V39.2942L48.999 36.1836V41.3381H47.8953V38.5862L44.6523 41.6969V36.6103H45.756Z" fill="#1D1D1B"/>
<path d="M51.2711 39.4628C50.9891 39.4228 50.7262 39.2976 50.5176 39.104C50.387 38.9777 50.2845 38.8255 50.2167 38.6572C50.1488 38.4889 50.1172 38.3082 50.1238 38.1269C50.117 37.9252 50.1525 37.7243 50.2281 37.5371C50.3036 37.3499 50.4176 37.1805 50.5626 37.0397C50.9714 36.6579 51.4524 36.613 51.9361 36.613H53.7074V41.3408H52.6038V39.5973H52.3721L51.0777 41.3381H49.7832L51.2711 39.4628ZM52.5997 37.5534H51.9633C51.7665 37.5379 51.569 37.573 51.3897 37.6554C51.3077 37.7043 51.2396 37.7733 51.1919 37.8558C51.1442 37.9383 51.1185 38.0317 51.1172 38.1269C51.114 38.216 51.1329 38.3045 51.1721 38.3846C51.2113 38.4647 51.2696 38.5339 51.342 38.5862C51.4783 38.6759 51.6799 38.699 51.9497 38.699H52.6024L52.5997 37.5534Z" fill="#1D1D1B"/>
<path d="M58.8263 43.9094H57.7227V36.6104H58.8263V37.1268C58.9977 36.9215 59.2132 36.7573 59.4569 36.6465C59.7005 36.5357 59.9661 36.4811 60.2339 36.4867C61.4834 36.4867 62.5421 37.438 62.5421 38.9464C62.5421 40.5405 61.3703 41.4836 60.2448 41.4836C59.9719 41.4773 59.7037 41.4118 59.4587 41.2916C59.2138 41.1714 58.998 40.9995 58.8263 40.7878V43.9094ZM58.7582 39.0022C58.7582 39.9901 59.4 40.497 60.0976 40.497C60.8975 40.497 61.4153 39.8175 61.4153 38.9926C61.4153 38.1501 60.8975 37.476 60.0976 37.476C59.4 37.476 58.7582 37.9707 58.7582 39.0035" fill="#1D1D1B"/>
<path d="M67.1572 36.6103H68.2609V41.3381H67.1572V40.8435C66.9832 41.0484 66.7656 41.2122 66.5203 41.3229C66.2749 41.4336 66.0079 41.4885 65.7387 41.4835C64.2753 41.4835 63.4414 40.2713 63.4414 38.9681C63.4414 37.4298 64.5001 36.4867 65.7496 36.4867C66.0213 36.4813 66.2904 36.5401 66.535 36.6582C66.7796 36.7763 66.9928 36.9503 67.1572 37.1661V36.6103ZM64.5683 38.9912C64.5683 39.8066 65.086 40.4956 65.8859 40.4956C66.5835 40.4956 67.2253 39.99 67.2253 39.0007C67.2253 37.9679 66.5835 37.4733 65.8859 37.4733C65.086 37.4733 64.5683 38.1527 64.5683 38.9899" fill="#1D1D1B"/>
<path d="M69.5898 37.2163C69.7862 36.9876 70.0329 36.8072 70.3106 36.689C70.6649 36.5481 71.0438 36.4792 71.4252 36.4865C71.8513 36.4636 72.2736 36.578 72.6297 36.8127C72.7897 36.9164 72.9197 37.0603 73.0065 37.2298C73.0933 37.3994 73.1339 37.5887 73.1243 37.7789C73.14 38.0133 73.0681 38.2451 72.9226 38.4298C72.8055 38.5807 72.6497 38.6971 72.4716 38.7668C72.7263 38.8185 72.9619 38.9389 73.1529 39.1147C73.2538 39.2187 73.3326 39.3418 73.3848 39.4767C73.437 39.6116 73.4615 39.7557 73.4568 39.9002C73.4646 40.0931 73.4324 40.2855 73.362 40.4654C73.2917 40.6453 73.1848 40.8086 73.048 40.9452C72.676 41.3149 72.1473 41.4888 71.3816 41.4888C70.9512 41.5056 70.524 41.409 70.143 41.2089C69.8116 41.0144 69.5513 40.7191 69.4004 40.3663L70.2779 39.9179C70.3684 40.1176 70.5128 40.2884 70.6948 40.4112C70.9095 40.5361 71.155 40.5982 71.4034 40.5906C71.5955 40.5906 71.9484 40.5566 72.1582 40.3555C72.2643 40.2425 72.3245 40.0943 72.3272 39.9396C72.3313 39.7981 72.2788 39.6607 72.1814 39.5578C71.9893 39.3553 71.6636 39.3553 71.3925 39.3553H70.9033V38.4516H71.3189C71.5081 38.4568 71.6956 38.4143 71.8639 38.3279C71.9262 38.2796 71.9766 38.2178 72.0112 38.1471C72.0459 38.0765 72.0639 37.9989 72.0639 37.9202C72.0639 37.8416 72.0459 37.7639 72.0112 37.6933C71.9766 37.6226 71.9262 37.5608 71.8639 37.5125C71.7039 37.42 71.5199 37.3769 71.3352 37.3889C71.1207 37.3842 70.9081 37.4308 70.7153 37.5248C70.5612 37.6046 70.4227 37.7114 70.3065 37.84L69.5898 37.2163Z" fill="#1D1D1B"/>
<path d="M76.4699 36.6104C76.7506 36.6104 77.1893 36.6212 77.5504 36.8917C77.6894 36.9987 77.8015 37.1366 77.8777 37.2944C77.9538 37.4523 77.992 37.6257 77.9891 37.8008C77.9945 37.9922 77.9442 38.181 77.8443 38.3444C77.7445 38.5079 77.5993 38.6391 77.4264 38.7222C77.6636 38.7708 77.8844 38.8788 78.0682 39.0361C78.1929 39.1514 78.2908 39.2925 78.3551 39.4496C78.4193 39.6066 78.4484 39.7758 78.4402 39.9452C78.4474 40.1535 78.4039 40.3604 78.3135 40.5483C78.2231 40.7362 78.0884 40.8995 77.921 41.0242C77.5993 41.2395 77.2182 41.3493 76.831 41.3381H74.6113V36.6104H76.4699ZM76.2778 38.4517C76.4304 38.4586 76.5821 38.4238 76.7165 38.3512C76.7834 38.3127 76.8386 38.2569 76.8763 38.1897C76.9139 38.1224 76.9326 38.0463 76.9304 37.9693C76.932 37.8965 76.9153 37.8245 76.882 37.7598C76.8487 37.695 76.7998 37.6395 76.7397 37.5983C76.5918 37.5187 76.4226 37.4874 76.256 37.5086H75.7109V38.4517H76.2778ZM76.5366 40.4399C76.7373 40.4496 76.9367 40.4024 77.1116 40.304C77.1809 40.2589 77.2378 40.1972 77.2771 40.1246C77.3163 40.0519 77.3367 39.9707 77.3365 39.8881C77.3408 39.8062 77.3233 39.7245 77.2857 39.6515C77.2482 39.5784 77.1919 39.5166 77.1225 39.4723C76.9562 39.3805 76.7673 39.3377 76.5775 39.3486H75.7218V40.4358L76.5366 40.4399Z" fill="#1D1D1B"/>
<path d="M80.6916 36.6103V39.2942L83.9345 36.1836V41.3381H82.8308V38.5862L79.5879 41.6969V36.6103H80.6916Z" fill="#1D1D1B"/>
<path d="M87.2088 37.6214V41.3381H86.1051V37.6214H84.7207V36.6104H88.5932V37.6214H87.2088Z" fill="#1D1D1B"/>
<path d="M90.4852 36.6103V39.2942L93.7281 36.1836V41.3381H92.6244V38.5862L89.3828 41.6969V36.6103H90.4852Z" fill="#1D1D1B"/>
<path d="M96.0022 39.4628C95.7202 39.4228 95.4572 39.2976 95.2487 39.104C95.1177 38.9779 95.0148 38.8258 94.9468 38.6574C94.8787 38.4891 94.8469 38.3083 94.8535 38.1269C94.847 37.9251 94.8827 37.7242 94.9585 37.537C95.0343 37.3498 95.1485 37.1804 95.2937 37.0397C95.7024 36.6579 96.1821 36.613 96.6671 36.613H98.4385V41.3408H97.3375V39.5973H97.1059L95.8114 41.3381H94.5156L96.0022 39.4628ZM97.3375 37.5534H96.6957C96.4989 37.5377 96.3014 37.5728 96.1221 37.6554C96.04 37.7041 95.9717 37.773 95.924 37.8556C95.8763 37.9382 95.8507 38.0316 95.8496 38.1269C95.8466 38.2161 95.8657 38.3047 95.9051 38.3848C95.9445 38.4649 96.0032 38.5341 96.0758 38.5862C96.212 38.6759 96.4137 38.699 96.6835 38.699H97.3375V37.5534Z" fill="#1D1D1B"/>
<path d="M1.16619 46.3418V49.0257L4.40913 45.915V51.0696H3.30544V48.319L0.0625 51.4297V46.3418H1.16619Z" fill="#1D1D1B"/>
<path d="M5.98828 46.3418H7.09197V48.0935H9.05136V46.3418H10.1551V51.0696H9.05136V49.1046H7.09197V51.0696H5.98828V46.3418Z" fill="#1D1D1B"/>
<path d="M13.4314 47.3529V51.0696H12.3277V47.3529H10.9434V46.3418H14.8158V47.3529H13.4314Z" fill="#1D1D1B"/>
<path d="M19.7256 49.9918C19.5322 50.3396 19.2579 50.636 18.9258 50.8561C18.5038 51.1043 18.0202 51.2287 17.5305 51.2148C16.8996 51.2148 16.3818 51.0586 15.9308 50.6088C15.4678 50.122 15.2169 49.4721 15.2332 48.8013C15.2216 48.0803 15.4924 47.3831 15.988 46.858C16.1949 46.649 16.4424 46.4845 16.7154 46.3744C16.9884 46.2643 17.2811 46.2111 17.5754 46.218C17.8578 46.2107 18.1385 46.262 18.4 46.3684C18.6615 46.4748 18.898 46.6341 19.0947 46.8363C19.7038 47.4655 19.7596 48.3406 19.7596 48.8353V48.9712H16.3532C16.377 49.3254 16.5212 49.661 16.762 49.9225C16.8745 50.028 17.0075 50.1094 17.1528 50.1615C17.2981 50.2137 17.4527 50.2354 17.6068 50.2255C17.8778 50.2376 18.1445 50.1544 18.3603 49.9904C18.5397 49.8493 18.6889 49.6737 18.799 49.474L19.7256 49.9918ZM18.6355 48.0716C18.595 47.8275 18.4764 47.603 18.2976 47.4315C18.0832 47.2521 17.8107 47.1566 17.5309 47.1629C17.2511 47.1691 16.9831 47.2767 16.777 47.4655C16.6087 47.6312 16.4914 47.8415 16.439 48.0716H18.6355Z" fill="#1D1D1B"/>
<path d="M22.0099 53.6448H20.9062V46.3418H22.0099V46.8582C22.1815 46.6531 22.397 46.4891 22.6406 46.3783C22.8843 46.2675 23.1498 46.2128 23.4175 46.2181C24.667 46.2181 25.7257 47.1694 25.7257 48.6778C25.7257 50.2719 24.5552 51.215 23.4284 51.215C23.1555 51.2085 22.8873 51.1429 22.6424 51.0227C22.3975 50.9026 22.1817 50.7308 22.0099 50.5192V53.6448ZM21.9432 48.7376C21.9432 49.7256 22.5849 50.2325 23.2826 50.2325C24.0824 50.2325 24.6002 49.553 24.6002 48.7281C24.6002 47.8856 24.0824 47.2129 23.2826 47.2129C22.5849 47.2129 21.9432 47.7062 21.9432 48.739" fill="#1D1D1B"/>
<path d="M30.3427 46.3417H31.4464V51.0695H30.3427V50.5762C30.1682 50.7806 29.9506 50.9438 29.7053 51.0543C29.4601 51.1647 29.1933 51.2196 28.9243 51.2149C27.4609 51.2149 26.627 50.0028 26.627 48.6995C26.627 47.1625 27.6857 46.2181 28.9352 46.2181C29.2068 46.2131 29.4758 46.272 29.7203 46.39C29.9649 46.5081 30.1781 46.682 30.3427 46.8975V46.3417ZM27.7538 48.7226C27.7538 49.538 28.2716 50.227 29.0714 50.227C29.7691 50.227 30.4108 49.7215 30.4108 48.7321C30.4108 47.6993 29.7691 47.206 29.0714 47.206C28.2716 47.206 27.7538 47.8787 27.7538 48.7213" fill="#1D1D1B"/>
<path d="M33.9455 46.3418V48.0269L35.522 46.3418H36.9854L34.9143 48.4088L37.0985 51.0696H35.7019L34.1253 49.1263L33.9455 49.307V51.0696H32.8418V46.3418H33.9455Z" fill="#1D1D1B"/>
<path d="M39.8103 47.3529V51.0696H38.7067V47.3529H37.3223V46.3418H41.1947V47.3529H39.8103Z" fill="#1D1D1B"/>
<path d="M43.0861 46.3418V49.0257L46.3291 45.915V51.0696H45.2254V48.319L41.9824 51.4297V46.3418H43.0861Z" fill="#1D1D1B"/>
<path d="M49.5832 46.3418C49.8639 46.3418 50.304 46.354 50.6637 46.6231C50.8026 46.7302 50.9147 46.8681 50.9908 47.0259C51.067 47.1838 51.1052 47.3571 51.1024 47.5322C51.1078 47.7236 51.0575 47.9124 50.9576 48.0759C50.8578 48.2394 50.7126 48.3706 50.5397 48.4536C50.7769 48.5022 50.9977 48.6103 51.1815 48.7675C51.3064 48.8827 51.4046 49.0238 51.4691 49.1809C51.5336 49.3379 51.5628 49.5071 51.5548 49.6767C51.5622 49.8848 51.519 50.0917 51.4288 50.2796C51.3386 50.4675 51.2042 50.6308 51.037 50.7557C50.7151 50.9706 50.3342 51.0803 49.947 51.0696H47.7246V46.3418H49.5832ZM49.391 48.1832C49.5438 48.1913 49.6959 48.1564 49.8298 48.0826C49.8968 48.0442 49.9522 47.9885 49.9901 47.9212C50.028 47.854 50.047 47.7778 50.0451 47.7008C50.0469 47.628 50.0302 47.556 49.9966 47.4913C49.963 47.4267 49.9136 47.3716 49.853 47.3311C49.7055 47.2502 49.5361 47.2183 49.3692 47.2401H48.8242V48.1832H49.391ZM49.6499 50.1713C49.8506 50.181 50.0499 50.1339 50.2249 50.0354C50.2942 49.9903 50.3511 49.9286 50.3903 49.856C50.4296 49.7834 50.45 49.7021 50.4498 49.6196C50.4544 49.5376 50.437 49.4558 50.3994 49.3827C50.3618 49.3096 50.3053 49.2478 50.2358 49.2038C50.0673 49.1114 49.876 49.0685 49.684 49.0801H48.8297V50.1673L49.6499 50.1713Z" fill="#1D1D1B"/>
<path d="M52.7012 46.3418H53.8049V48.0935H55.7642V46.3418H56.8679V51.0696H55.7642V49.1046H53.8049V51.0696H52.7012V46.3418Z" fill="#1D1D1B"/>
<path d="M63.0811 48.7117C63.0811 50.1603 61.9774 51.2149 60.5467 51.2149C59.116 51.2149 58.0137 50.1603 58.0137 48.7117C58.0137 47.2631 59.1174 46.218 60.5467 46.218C61.9761 46.218 63.0811 47.2522 63.0811 48.7117ZM61.9542 48.7226C61.9542 47.6449 61.2457 47.2073 60.5467 47.2073C59.8477 47.2073 59.1405 47.6449 59.1405 48.7226C59.1405 49.6317 59.6856 50.2269 60.5467 50.2269C61.4079 50.2269 61.9542 49.6317 61.9542 48.7226Z" fill="#1D1D1B"/>
<path d="M65.333 46.3419V49.0244L68.5759 45.9138V51.0683H67.4722V48.3191L64.2266 51.4298V46.3419H65.333ZM65.491 44.0398C65.6818 44.6907 66.1437 44.7696 66.4135 44.7696C66.8986 44.7696 67.1793 44.5453 67.3373 44.0398L68.238 44.298C67.9791 45.2302 67.0553 45.623 66.4135 45.623C65.7717 45.623 64.8493 45.2302 64.5904 44.298L65.491 44.0398Z" fill="#1D1D1B"/>
<path d="M73.6974 53.6448H72.5938V46.3418H73.6974V46.8582C73.8689 46.6531 74.0845 46.4891 74.3281 46.3783C74.5718 46.2675 74.8373 46.2128 75.105 46.2181C76.3545 46.2181 77.4132 47.1694 77.4132 48.6778C77.4132 50.2719 76.2427 51.215 75.1159 51.215C74.843 51.2085 74.5748 51.1429 74.3299 51.0227C74.085 50.9026 73.8692 50.7308 73.6974 50.5192V53.6448ZM73.6279 48.7336C73.6279 49.7215 74.2697 50.2284 74.9674 50.2284C75.7672 50.2284 76.285 49.5489 76.285 48.724C76.285 47.8815 75.7672 47.2088 74.9674 47.2088C74.2697 47.2088 73.6279 47.7021 73.6279 48.7349" fill="#1D1D1B"/>
<path d="M82.8057 49.9919C82.6123 50.3397 82.338 50.6361 82.0058 50.8562C81.5839 51.1044 81.1002 51.2288 80.6106 51.2149C79.9797 51.2149 79.4619 51.0587 79.0109 50.6088C78.5479 50.1221 78.297 49.4722 78.3132 48.8014C78.3017 48.0804 78.5725 47.3832 79.0681 46.8581C79.275 46.6491 79.5225 46.4846 79.7955 46.3745C80.0685 46.2644 80.3612 46.2112 80.6555 46.218C80.9379 46.2103 81.2188 46.2613 81.4804 46.3678C81.742 46.4742 81.9784 46.6338 82.1748 46.8364C82.7839 47.4656 82.8397 48.3407 82.8397 48.8354V48.9713H79.4333C79.457 49.3255 79.6012 49.6611 79.8421 49.9226C79.9545 50.0281 80.0876 50.1095 80.2329 50.1616C80.3782 50.2138 80.5327 50.2355 80.6869 50.2256C80.9579 50.2377 81.2246 50.1545 81.4404 49.9905C81.6198 49.8494 81.769 49.6738 81.8791 49.4741L82.8057 49.9919ZM81.7156 48.0717C81.6756 47.8274 81.557 47.6027 81.3777 47.4316C81.1633 47.2522 80.8908 47.1567 80.611 47.163C80.3312 47.1692 80.0632 47.2768 79.857 47.4656C79.6887 47.6313 79.5715 47.8416 79.5191 48.0717H81.7156Z" fill="#1D1D1B"/>
<path d="M85.092 46.3418V48.0269L86.6685 46.3418H88.1319L86.0608 48.4088L88.245 51.0696H86.8484L85.2718 49.1263L85.092 49.307V51.0696H83.9883V46.3418H85.092Z" fill="#1D1D1B"/>
<path d="M92.9781 51.0696H91.8744V47.3529H90.4751V49.2282C90.4751 49.6359 90.4178 50.1605 90.024 50.5872C89.5962 51.0587 88.9776 51.1484 88.4707 51.0696V50.0585C88.6075 50.0947 88.7515 50.094 88.8879 50.0565C89.0244 50.019 89.1484 49.9461 89.2474 49.8452C89.3702 49.6636 89.4295 49.4468 89.4163 49.2282V46.3418H92.9781V51.0696Z" fill="#1D1D1B"/>
<path d="M97.8388 46.3417H98.9411V51.0695H97.8388V50.5762C97.664 50.7805 97.4461 50.9437 97.2006 51.0542C96.9551 51.1646 96.6882 51.2195 96.419 51.2149C94.9556 51.2149 94.123 50.0028 94.123 48.6995C94.123 47.1625 95.1804 46.2181 96.4313 46.2181C96.7029 46.2131 96.9719 46.272 97.2164 46.39C97.461 46.5081 97.6742 46.682 97.8388 46.8975V46.3417ZM95.2499 48.7226C95.2499 49.538 95.7677 50.227 96.5675 50.227C97.2652 50.227 97.9069 49.7215 97.9069 48.7321C97.9069 47.6993 97.2652 47.206 96.5675 47.206C95.7677 47.206 95.2499 47.8787 95.2499 48.7213" fill="#1D1D1B"/>
<path d="M100.944 45.915L102.903 49.5203L104.862 45.915L106.01 51.0696H104.884L104.411 48.7009L102.903 51.4297L101.395 48.7009L100.92 51.0696H99.7949L100.944 45.915Z" fill="#1D1D1B"/>
<path d="M106.867 46.3418H107.967V48.0147H108.598C109.058 48.0147 109.599 48.0269 110.027 48.4985C110.278 48.7832 110.411 49.1524 110.399 49.5313C110.407 49.7393 110.373 49.9467 110.3 50.1416C110.226 50.3364 110.114 50.5147 109.971 50.666C109.554 51.0737 109.058 51.0737 108.585 51.0737H106.867V46.3418ZM108.478 50.1265C108.675 50.1433 108.872 50.1082 109.051 50.0246C109.131 49.972 109.195 49.9 109.238 49.8156C109.282 49.7311 109.303 49.637 109.299 49.5421C109.305 49.4497 109.286 49.3574 109.244 49.2747C109.203 49.1919 109.14 49.1215 109.062 49.0706C108.885 48.9804 108.687 48.9413 108.489 48.9578H107.967V50.1265H108.478ZM110.898 46.3418H112.001V51.0696H110.898V46.3418Z" fill="#1D1D1B"/>
<path d="M17.6698 0.725682H24.6598V22.3195H17.6698V19.7049C15.7758 22.6103 13.0574 23.0452 11.2656 23.0452C8.15895 23.0452 5.54279 22.2706 3.15828 19.7538C0.87732 17.3321 0.00390625 14.5245 0.00390625 11.668C0.00390625 8.03686 1.36649 4.93845 3.35313 2.95301C5.24575 1.06542 7.86736 0 10.8773 0C12.7222 0 15.6831 0.434866 17.6738 3.14598L17.6698 0.725682ZM8.78573 7.55308C8.2673 8.06499 7.85809 8.67623 7.58271 9.35001C7.30733 10.0238 7.17148 10.7462 7.18334 11.4737C7.18334 13.4102 8.00906 14.6699 8.63994 15.3467C9.61146 16.3645 11.1157 17.0413 12.7658 17.0413C14.1295 17.0406 15.4378 16.5034 16.4066 15.5465C17.3291 14.6754 18.1058 13.3191 18.1058 11.4791C18.1058 9.92989 17.524 8.47716 16.5047 7.50959C15.4365 6.49309 13.8831 6.01474 12.6214 6.01474C11.1894 6.01503 9.81378 6.57113 8.78573 7.56531" fill="#1D1D1B"/>
<path d="M37.0877 30.7763H30.0977V0.725682H37.0877V3.29139C39.37 0.33838 42.1851 0 43.8365 0C47.7199 0 50.1467 1.69462 51.5065 3.0495C53.4482 4.98601 54.759 7.94174 54.759 11.475C54.759 15.204 53.4482 18.0116 51.3117 20.1424C49.1751 22.2733 46.8451 23.0465 43.981 23.0465C39.6616 23.0465 37.8167 20.8722 37.0877 19.8516V30.7763ZM38.2527 7.60064C37.2117 8.66378 36.6209 10.0856 36.6026 11.5715C36.613 12.997 37.1686 14.3648 38.156 15.3956C39.2161 16.4426 40.6455 17.0335 42.1374 17.0413C43.5271 17.0278 44.861 16.4943 45.875 15.5465C46.9909 14.481 47.5741 12.8285 47.5741 11.4315C47.581 10.7175 47.4451 10.0092 47.1744 9.3482C46.9036 8.68716 46.5034 8.08658 45.9972 7.58159C45.491 7.0766 44.8889 6.67733 44.2262 6.40713C43.5635 6.13694 42.8534 6.00123 42.1374 6.00794C41.4155 6.00095 40.6996 6.13882 40.0322 6.41337C39.3649 6.68792 38.7597 7.09353 38.2527 7.60607" fill="#1D1D1B"/>
<path d="M66.117 0.725586V13.0717L75.3403 0.725586H81.8453V22.3194H74.8552V9.77895L65.6319 22.3194H59.127V0.725586H66.117Z" fill="#1D1D1B"/>
<path d="M94.2713 22.3195H87.2812V0.725682H94.2713V3.29139C96.5536 0.33838 99.3687 0 101.016 0C104.899 0 107.326 1.69462 108.686 3.0495C110.628 4.98601 111.938 7.94174 111.938 11.475C111.938 15.204 110.628 18.0116 108.491 20.1424C106.355 22.2733 104.025 23.0465 101.16 23.0465C96.8411 23.0465 94.9962 20.8722 94.2672 19.8516L94.2713 22.3195ZM95.4363 7.60064C94.3953 8.66378 93.8045 10.0856 93.7862 11.5715C93.7966 12.997 94.3522 14.3648 95.3396 15.3956C96.3997 16.4426 97.8291 17.0335 99.321 17.0413C100.711 17.0275 102.044 16.4941 103.059 15.5465C104.175 14.481 104.758 12.8285 104.758 11.4315C104.764 10.7175 104.628 10.0094 104.358 9.34842C104.087 8.68746 103.687 8.08695 103.18 7.582C102.674 7.07705 102.072 6.67778 101.41 6.40751C100.747 6.13725 100.037 6.00141 99.321 6.00794C98.5991 6.00095 97.8832 6.13883 97.2158 6.41337C96.5485 6.68792 95.9433 7.09353 95.4363 7.60608" fill="#1D1D1B"/>
<path d="M94.2713 23.8035H87.2812V30.7749H94.2713V23.8035Z" fill="#E4231E"/>
</svg>
